<?xml version="1.0" encoding="utf-8" ?>
<svg baseProfile="full" height="200" version="1.1" width="400" xmlns="http://www.w3.org/2000/svg" xmlns:ev="http://www.w3.org/2001/xml-events" xmlns:xlink="http://www.w3.org/1999/xlink"><defs /><rect fill="#0D1117" height="100%" rx="8" width="100%" x="0" y="0" /><rect fill="#FFFFFF" height="1" opacity="0.15" width="400" x="0" y="0" /><rect fill="#FFFFFF" height="1" opacity="0.04" width="400" x="0" y="3" /><rect fill="#FFFFFF" height="1" opacity="0.04" width="400" x="0" y="6" /><rect fill="#FFFFFF" height="1" opacity="0.04" width="400" x="0" y="9" /><rect fill="#FFFFFF" height="1" opacity="0.04" width="400" x="0" y="12" /><rect fill="#FFFFFF" height="1" opacity="0.15" width="400" x="0" y="15" /><rect fill="#FFFFFF" height="1" opacity="0.15" width="400" x="0" y="18" /><rect fill="#FFFFFF" height="1" opacity="0.04" width="400" x="0" y="21" /><rect fill="#FFFFFF" height="1" opacity="0.15" width="400" x="0" y="24" /><rect fill="#FFFFFF" height="1" opacity="0.04" width="400" x="0" y="27" /><rect fill="#FFFFFF" height="1" opacity="0.15" width="400" x="0" y="30" /><rect fill="#FFFFFF" height="1" opacity="0.04" width="400" x="0" y="33" /><rect fill="#FFFFFF" height="1" opacity="0.04" width="400" x="0" y="36" /><rect fill="#FFFFFF" height="1" opacity="0.04" width="400" x="0" y="39" /><rect fill="#FFFFFF" height="1" opacity="0.04" width="400" x="0" y="42" /><rect fill="#FFFFFF" height="1" opacity="0.15" width="400" x="0" y="45" /><rect fill="#FFFFFF" height="1" opacity="0.15" width="400" x="0" y="48" /><rect fill="#FFFFFF" height="1" opacity="0.15" width="400" x="0" y="51" /><rect fill="#FFFFFF" height="1" opacity="0.04" width="400" x="0" y="54" /><rect fill="#FFFFFF" height="1" opacity="0.04" width="400" x="0" y="57" /><rect fill="#FFFFFF" height="1" opacity="0.04" width="400" x="0" y="60" /><rect fill="#FFFFFF" height="1" opacity="0.04" width="400" x="0" y="63" /><rect fill="#FFFFFF" height="1" opacity="0.15" width="400" x="0" y="66" /><rect fill="#FFFFFF" height="1" opacity="0.04" width="400" x="0" y="69" /><rect fill="#FFFFFF" height="1" opacity="0.04" width="400" x="0" y="72" /><rect fill="#FFFFFF" height="1" opacity="0.04" width="400" x="0" y="75" /><rect fill="#FFFFFF" height="1" opacity="0.15" width="400" x="0" y="78" /><rect fill="#FFFFFF" height="1" opacity="0.04" width="400" x="0" y="81" /><rect fill="#FFFFFF" height="1" opacity="0.04" width="400" x="0" y="84" /><rect fill="#FFFFFF" height="1" opacity="0.04" width="400" x="0" y="87" /><rect fill="#FFFFFF" height="1" opacity="0.04" width="400" x="0" y="90" /><rect fill="#FFFFFF" height="1" opacity="0.04" width="400" x="0" y="93" /><rect fill="#FFFFFF" height="1" opacity="0.04" width="400" x="0" y="96" /><rect fill="#FFFFFF" height="1" opacity="0.04" width="400" x="0" y="99" /><rect fill="#FFFFFF" height="1" opacity="0.15" width="400" x="0" y="102" /><rect fill="#FFFFFF" height="1" opacity="0.15" width="400" x="0" y="105" /><rect fill="#FFFFFF" height="1" opacity="0.15" width="400" x="0" y="108" /><rect fill="#FFFFFF" height="1" opacity="0.04" width="400" x="0" y="111" /><rect fill="#FFFFFF" height="1" opacity="0.15" width="400" x="0" y="114" /><rect fill="#FFFFFF" height="1" opacity="0.04" width="400" x="0" y="117" /><rect fill="#FFFFFF" height="1" opacity="0.04" width="400" x="0" y="120" /><rect fill="#FFFFFF" height="1" opacity="0.15" width="400" x="0" y="123" /><rect fill="#FFFFFF" height="1" opacity="0.15" width="400" x="0" y="126" /><rect fill="#FFFFFF" height="1" opacity="0.15" width="400" x="0" y="129" /><rect fill="#FFFFFF" height="1" opacity="0.04" width="400" x="0" y="132" /><rect fill="#FFFFFF" height="1" opacity="0.04" width="400" x="0" y="135" /><rect fill="#FFFFFF" height="1" opacity="0.04" width="400" x="0" y="138" /><rect fill="#FFFFFF" height="1" opacity="0.15" width="400" x="0" y="141" /><rect fill="#FFFFFF" height="1" opacity="0.04" width="400" x="0" y="144" /><rect fill="#FFFFFF" height="1" opacity="0.04" width="400" x="0" y="147" /><rect fill="#FFFFFF" height="1" opacity="0.04" width="400" x="0" y="150" /><rect fill="#FFFFFF" height="1" opacity="0.15" width="400" x="0" y="153" /><rect fill="#FFFFFF" height="1" opacity="0.04" width="400" x="0" y="156" /><rect fill="#FFFFFF" height="1" opacity="0.04" width="400" x="0" y="159" /><rect fill="#FFFFFF" height="1" opacity="0.04" width="400" x="0" y="162" /><rect fill="#FFFFFF" height="1" opacity="0.04" width="400" x="0" y="165" /><rect fill="#FFFFFF" height="1" opacity="0.15" width="400" x="0" y="168" /><rect fill="#FFFFFF" height="1" opacity="0.04" width="400" x="0" y="171" /><rect fill="#FFFFFF" height="1" opacity="0.04" width="400" x="0" y="174" /><rect fill="#FFFFFF" height="1" opacity="0.04" width="400" x="0" y="177" /><rect fill="#FFFFFF" height="1" opacity="0.04" width="400" x="0" y="180" /><rect fill="#FFFFFF" height="1" opacity="0.04" width="400" x="0" y="183" /><rect fill="#FFFFFF" height="1" opacity="0.15" width="400" x="0" y="186" /><rect fill="#FFFFFF" height="1" opacity="0.15" width="400" x="0" y="189" /><rect fill="#FFFFFF" height="1" opacity="0.04" width="400" x="0" y="192" /><rect fill="#FFFFFF" height="1" opacity="0.15" width="400" x="0" y="195" /><rect fill="#FFFFFF" height="1" opacity="0.04" width="400" x="0" y="198" /><text fill="#00FF41" font-family="monospace" font-size="16" font-weight="bold" text-anchor="middle" x="200" y="30">📺 CRT MONITOR</text><text fill="#00FF41" font-family="monospace" font-size="12" x="50" y="70">&gt; Repos: 11</text><text fill="#00FF41" font-family="monospace" font-size="12" x="50" y="95">&gt; Followers: 1</text><text fill="#00FF41" font-family="monospace" font-size="12" x="50" y="120">&gt; Recent commits: 26</text><text fill="#00FF41" font-family="monospace" font-size="12" x="50" y="145">&gt; STATUS: ONLINE</text><text fill="#006600" font-family="monospace" font-size="8" text-anchor="middle" x="200" y="185">UPDATED EVERY 8 HOURS</text></svg>