<?xml version="1.0" encoding="utf-8" ?>
<svg baseProfile="full" height="240px" version="1.1" width="800px" xmlns="http://www.w3.org/2000/svg" xmlns:ev="http://www.w3.org/2001/xml-events" xmlns:xlink="http://www.w3.org/1999/xlink"><defs><linearGradient id="quoteGrad" x1="0" x2="1" y1="0" y2="0"><stop offset="0%" stop-color="#FFD700" /><stop offset="50%" stop-color="#FF8C00" /><stop offset="100%" stop-color="#FF1493" /></linearGradient><filter height="140%" id="glow" width="140%" x="-20%" y="-20%"><feGaussianBlur in="SourceAlpha" result="blur" stdDeviation="4" /><feFlood flood-color="#FF4500" flood-opacity="0.8" result="color" /><feComposite in="color" in2="blur" operator="in" result="glow" /><feMerge><feMergeNode in="glow" /><feMergeNode in="SourceGraphic" /></feMerge></filter></defs><rect fill="#0D1117" height="100%" rx="12" width="100%" x="0" y="0" /><circle cx="674" cy="48" fill="#FF8C00" opacity="0.4375146591845596" r="1.5500215104453339" /><circle cx="162" cy="208" fill="#AFEEEE" opacity="0.6703338723338379" r="1.704990352343015" /><circle cx="109" cy="171" fill="#FF8C00" opacity="0.31489860971903516" r="2.343843639370541" /><circle cx="258" cy="149" fill="#AFEEEE" opacity="0.5806225314693065" r="2.7040374580999607" /><circle cx="449" cy="76" fill="#FFD700" opacity="0.43909535411533135" r="2.398418092567707" /><circle cx="183" cy="198" fill="#FF8C00" opacity="0.4389356708358209" r="2.345228796307005" /><circle cx="364" cy="46" fill="#FF1493" opacity="0.348358188416732" r="1.6854916867602958" /><circle cx="638" cy="87" fill="#AFEEEE" opacity="0.6648658933469089" r="3.11425654654876" /><circle cx="147" cy="116" fill="#AFEEEE" opacity="0.44658914070354644" r="1.6576003961569163" /><circle cx="390" cy="167" fill="#FF8C00" opacity="0.33477757441187045" r="1.8845771805133198" /><circle cx="316" cy="40" fill="#00FFFF" opacity="0.7332418333776348" r="3.210635442030294" /><circle cx="304" cy="136" fill="#FF1493" opacity="0.4824160894850421" r="2.7713688885288006" /><circle cx="383" cy="73" fill="#FFD700" opacity="0.6509101567292757" r="2.8403503487553867" /><circle cx="643" cy="182" fill="#FF8C00" opacity="0.6645633989751746" r="1.842277296396194" /><circle cx="493" cy="117" fill="#AFEEEE" opacity="0.7626955898106089" r="2.039895653568556" /><circle cx="244" cy="195" fill="#FFD700" opacity="0.6841567887961861" r="2.1485654688306437" /><circle cx="254" cy="28" fill="#FFD700" opacity="0.5005823935111644" r="3.110091601542429" /><circle cx="236" cy="165" fill="#00FFFF" opacity="0.45733894039923895" r="3.252735252945338" /><circle cx="425" cy="184" fill="#FF8C00" opacity="0.4324400832490262" r="2.4177037051747976" /><circle cx="594" cy="157" fill="#AFEEEE" opacity="0.5922929951117702" r="2.0254832170458705" /><circle cx="428" cy="112" fill="#AFEEEE" opacity="0.7987688032475551" r="1.9386415183145667" /><circle cx="525" cy="43" fill="#FF8C00" opacity="0.730551454833333" r="3.0115643150674756" /><circle cx="662" cy="60" fill="#FFD700" opacity="0.5110799833998421" r="3.084158728725928" /><circle cx="414" cy="117" fill="#FF1493" opacity="0.5340249438923386" r="2.691776856722256" /><circle cx="586" cy="22" fill="#AFEEEE" opacity="0.3572758714918433" r="2.860566820513037" /><circle cx="293" cy="216" fill="#00FFFF" opacity="0.3557760867979382" r="2.781923597159616" /><circle cx="181" cy="136" fill="#FF1493" opacity="0.6610460306549554" r="1.5064906322034586" /><circle cx="532" cy="215" fill="#FF1493" opacity="0.7563139196724102" r="1.8573037610602627" /><circle cx="674" cy="149" fill="#FF8C00" opacity="0.3764196342748174" r="2.7179404228763446" /><circle cx="572" cy="219" fill="#AFEEEE" opacity="0.7592467471978511" r="3.3448681612365494" /><text fill="url(#quoteGrad)" filter="url(#glow)" font-family="monospace" font-size="32" font-weight="bold" text-anchor="middle" x="400.0" y="90">Я твой недостаток, ты моя Вселенная</text><text fill="#C9D1D9" font-family="monospace" font-size="18" font-style="italic" text-anchor="middle" x="400.0" y="160">— Баста</text><line opacity="0.8" stroke="#FF4500" stroke-width="2" x1="340.0" x2="460.0" y1="190" y2="190" /><circle cx="340.0" cy="190" fill="#FF4500" r="3" /><circle cx="460.0" cy="190" fill="#FF4500" r="3" /></svg>